<svg width="24" height="17" viewBox="0 0 24 17" fill="none" xmlns="http://www.w3.org/2000/svg">
<path fill-rule="evenodd" clip-rule="evenodd" d="M12.2285 0C12.064 0 11.9063 0.079018 11.79 0.21967C11.6737 0.360323 11.6083 0.551088 11.6083 0.75C11.6083 0.948913 11.6737 1.13968 11.79 1.28033C11.9063 1.42098 12.064 1.5 12.2285 1.5H23.0808C23.2453 1.5 23.403 1.42098 23.5193 1.28033C23.6356 1.13968 23.701 0.948913 23.701 0.75C23.701 0.551088 23.6356 0.360323 23.5193 0.21967C23.403 0.079018 23.2453 8.38353e-09 23.0808 0H12.2285ZM12.2285 3.75C12.147 3.75 12.0664 3.7694 11.9912 3.80709C11.9159 3.84478 11.8476 3.90003 11.79 3.96967C11.7324 4.03931 11.6867 4.12199 11.6555 4.21299C11.6244 4.30398 11.6083 4.40151 11.6083 4.5C11.6083 4.59849 11.6244 4.69602 11.6555 4.78701C11.6867 4.87801 11.7324 4.96069 11.79 5.03033C11.8476 5.09997 11.9159 5.15522 11.9912 5.19291C12.0664 5.2306 12.147 5.25 12.2285 5.25H23.0808C23.2453 5.25 23.403 5.17098 23.5193 5.03033C23.6356 4.88968 23.701 4.69891 23.701 4.5C23.701 4.30109 23.6356 4.11032 23.5193 3.96967C23.403 3.82902 23.2453 3.75 23.0808 3.75H12.2285ZM11.6083 8.25C11.6083 7.8375 11.8874 7.5 12.2285 7.5H23.0808C23.2453 7.5 23.403 7.57902 23.5193 7.71967C23.6356 7.86032 23.701 8.05109 23.701 8.25C23.701 8.44891 23.6356 8.63968 23.5193 8.78033C23.403 8.92098 23.2453 9 23.0808 9H12.2285C12.147 9 12.0664 8.9806 11.9912 8.94291C11.9159 8.90522 11.8476 8.84997 11.79 8.78033C11.7324 8.71069 11.6867 8.62801 11.6555 8.53701C11.6244 8.44602 11.6083 8.34849 11.6083 8.25ZM12.2285 11.25C12.064 11.25 11.9063 11.329 11.79 11.4697C11.6737 11.6103 11.6083 11.8011 11.6083 12C11.6083 12.1989 11.6737 12.3897 11.79 12.5303C11.9063 12.671 12.064 12.75 12.2285 12.75H23.0808C23.2453 12.75 23.403 12.671 23.5193 12.5303C23.6356 12.3897 23.701 12.1989 23.701 12C23.701 11.8011 23.6356 11.6103 23.5193 11.4697C23.403 11.329 23.2453 11.25 23.0808 11.25H12.2285ZM11.6083 15.75C11.6083 15.3375 11.8874 15 12.2285 15H23.0808C23.2453 15 23.403 15.079 23.5193 15.2197C23.6356 15.3603 23.701 15.5511 23.701 15.75C23.701 15.9489 23.6356 16.1397 23.5193 16.2803C23.403 16.421 23.2453 16.5 23.0808 16.5H12.2285C12.064 16.5 11.9063 16.421 11.79 16.2803C11.6737 16.1397 11.6083 15.9489 11.6083 15.75ZM4.47679 11.5313L8.35263 5.4375H0.600952L4.47679 11.5313Z" fill="black"/>
</svg>
