<svg xmlns:mydata="http://www.w3.org/2000/svg" mydata:contrastcolor="fbe3ad" mydata:template="InvertedHex1" mydata:presentation="2.5" mydata:layouttype="undefined" mydata:specialfontid="undefined" mydata:id1="001" mydata:id2="185" mydata:companyname="Atlas of History" mydata:companytagline="" version="1.1" xmlns="http://www.w3.org/2000/svg" xmlns:xlink="http://www.w3.org/1999/xlink" viewBox="0 0 550 470"><g fill="#ffffff" fill-rule="none" stroke="none" stroke-width="1" stroke-linecap="butt" stroke-linejoin="miter" stroke-miterlimit="10" stroke-dasharray="" stroke-dashoffset="0" font-family="none" font-weight="none" font-size="none" text-anchor="none" style="mix-blend-mode: normal"><g data-paper-data="{&quot;isGlobalGroup&quot;:true,&quot;bounds&quot;:{&quot;x&quot;:122.1445147436662,&quot;y&quot;:106.00000000000001,&quot;width&quot;:305.7109705126676,&quot;height&quot;:258}}"><g data-paper-data="{&quot;fillRule&quot;:&quot;evenodd&quot;,&quot;fillRuleOriginal&quot;:&quot;evenodd&quot;,&quot;isIcon&quot;:true,&quot;iconStyle&quot;:&quot;standalone&quot;,&quot;selectedEffects&quot;:{&quot;container&quot;:&quot;&quot;,&quot;transformation&quot;:&quot;&quot;,&quot;pattern&quot;:&quot;&quot;},&quot;bounds&quot;:{&quot;x&quot;:165.3693179630012,&quot;y&quot;:157.87845341512212,&quot;width&quot;:216.61623948414183,&quot;height&quot;:206.12154658487788},&quot;iconType&quot;:&quot;icon&quot;,&quot;rawIconId&quot;:&quot;84926&quot;,&quot;isDetailed&quot;:false,&quot;suitableAsStandaloneIcon&quot;:true}" fill-rule="evenodd"><path d="M241.18803,364h65.0839c0.43588,0 0.87175,-0.13179 1.25441,-0.36025c0.12206,-0.05779 0.24387,-0.11882 0.36593,-0.17986l52.3912,-38.61825c0.54011,-0.27006 0.81018,-0.81018 1.08023,-1.35029l19.92243,-60.82969c0.67758,-0.65057 0.82665,-1.73566 0.60195,-2.63387l-20.25433,-61.84322c-0.27006,-0.54011 -0.54011,-1.08023 -1.08023,-1.35029l-52.66126,-38.3482c-0.72025,-0.54011 -1.44022,-0.72016 -2.16047,-0.54011h-64.54379c-0.54011,0 -1.08023,0.27006 -1.62034,0.54011l-52.66126,38.3482c-0.73105,0.36566 -1.09103,1.10237 -1.16368,1.87528l-20.17088,61.58828c-0.27006,0.54011 -0.27006,1.08023 0,1.62034l19.98427,61.84322c0.40374,0.80747 1.1094,1.46425 1.89121,1.7443l52.12033,37.95418c0.54011,0.27006 1.08023,0.54011 1.62034,0.54011zM232.54619,210.87727c-1.08023,0.54011 -1.35029,1.8904 -1.08023,2.97063l21.60462,66.97431h-35.195l-26.17237,-80.89687l50.29501,-36.57824h55.90194l-65.34857,47.52611zM373.65324,253.66819l-65.49088,-47.65195c-1.08023,-0.81018 -2.16047,-0.81018 -3.2407,0l-32.94705,24.03514c-0.21875,0.21875 -0.43749,0.48179 -0.62032,0.77101l-23.13773,16.77761l-10.80933,-33.48202l68.86471,-49.96068l50.50079,36.45779zM275.48537,320.25065h-85.06818l-19.44415,-59.14264l17.28369,-53.47142l24.84531,76.69639c0.54011,1.08023 1.62034,1.8904 2.70058,1.8904h41.31883h0.00864h29.42765zM311.40305,354.00786l9.24489,-28.4306l15.87049,-48.53585c0.07508,-0.30058 0.10857,-0.60115 0.09425,-0.89578c0.04078,-0.86284 -0.30354,-1.69164 -1.17448,-2.34491l-57.19282,-41.54568l28.29664,-20.56759l69.40483,50.50079l-19.1741,59.14264zM273.64682,235.59755l-23.73565,17.2521l9.11769,28.24264h29.42252l9.07691,-27.99635zM196.62852,325.6518h81.01732c1.35029,0 2.43052,-0.81018 2.70058,-1.8904l21.79933,-67.28218l28.43141,20.83225l-26.39192,81.28737h-62.187z" data-paper-data="{&quot;isPathIcon&quot;:true}"></path></g><g data-paper-data="{&quot;isPrimaryText&quot;:true}" fill-rule="nonzero"><path d="M151.29378,226.76252l1.28543,-6.11742l-30.4347,8.49647l24.44868,19.99115l1.21698,-5.79164l-3.25468,-2.4981l2.74581,-13.06738zM132.45143,231.53411l9.26497,-2.36192l-1.71898,8.18069z" data-paper-data="{&quot;glyphName&quot;:&quot;A&quot;,&quot;glyphIndex&quot;:0,&quot;firstGlyphOfWord&quot;:true,&quot;word&quot;:1}"></path><path d="M156.32973,211.78632l-20.81274,-8.22188l2.66362,-6.74264l-4.81617,-1.90258l-7.27059,18.40466l4.81617,1.90258l2.50054,-6.32983l20.81274,8.22188z" data-paper-data="{&quot;glyphName&quot;:&quot;T&quot;,&quot;glyphIndex&quot;:1,&quot;word&quot;:1}"></path><path d="M137.72252,186.35586l23.39127,14.5669l8.89656,-14.28594l-4.39568,-2.7374l-5.86586,9.4193l-18.9956,-11.82949z" data-paper-data="{&quot;glyphName&quot;:&quot;L&quot;,&quot;glyphIndex&quot;:2,&quot;word&quot;:1}"></path><path d="M186.40371,168.646l4.25381,-4.58042l-30.4613,-8.40058l10.65216,29.73072l4.02727,-4.33649l-1.50213,-3.81799l9.08653,-9.78422zM167.79667,163.02636l9.15735,2.74979l-5.68852,6.1253z" data-paper-data="{&quot;glyphName&quot;:&quot;A&quot;,&quot;glyphIndex&quot;:3,&quot;word&quot;:1}"></path><path d="M191.37074,148.41997c2.33309,-1.31782 4.33363,-1.07327 5.63181,0.72673c1.03854,1.44 0.72563,3.53545 -0.80437,4.6389c-1.32,0.952 -2.608,1.37927 -4.55836,0.82491l-1.80618,5.58945c3.81763,0.80382 7.03836,-0.10527 9.58835,-1.94436c3.93,-2.83436 5.30982,-8.57235 2.17255,-12.92235c-3.11563,-4.32 -8.12635,-4.62818 -12.10944,-2.12037c-2.47818,1.55927 -3.89891,1.17018 -4.63454,0.15018c-0.88709,-1.23 -0.588,-2.58582 0.642,-3.47291c0.78,-0.56254 2.11618,-0.79654 3.17054,-0.59927l1.73436,-5.30963c-3.18127,-0.80673 -5.88708,-0.13219 -8.10708,1.4689c-3.09,2.22854 -4.64436,7.40835 -1.91819,11.18835c2.53145,3.51 6.80399,4.12255 10.99853,1.78146z" data-paper-data="{&quot;glyphName&quot;:&quot;S&quot;,&quot;glyphIndex&quot;:4,&quot;lastGlyphOfWord&quot;:true,&quot;word&quot;:1}"></path><path d="M239.3171,139.39175c7.58092,-2.14483 11.96055,-10.03409 9.81572,-17.61501c-2.14483,-7.58092 -9.9985,-11.97062 -17.61501,-9.81572c-7.58092,2.14483 -11.97062,9.9985 -9.82579,17.57942c2.14483,7.58092 10.00857,12.00621 17.62508,9.85131zM233.00812,117.22852c4.48449,-1.26878 9.14658,1.48685 10.4657,6.1493c1.33926,4.73363 -1.17261,9.44207 -5.6571,10.71085c-4.55567,1.28891 -9.12644,-1.41567 -10.4657,-6.1493c-1.31912,-4.66244 1.13702,-9.432 5.6571,-10.71085z" data-paper-data="{&quot;glyphName&quot;:&quot;O&quot;,&quot;glyphIndex&quot;:5,&quot;firstGlyphOfWord&quot;:true,&quot;word&quot;:2}"></path><path d="M263.48633,134.05423l-0.74482,-12.03514l10.33693,-0.63973l-0.31986,-5.16846l-10.33693,0.63973l-0.31758,-5.13155l8.89714,-0.55062l-0.31986,-5.16846l-14.61937,0.90476l1.70213,27.50361z" data-paper-data="{&quot;glyphName&quot;:&quot;F&quot;,&quot;glyphIndex&quot;:6,&quot;lastGlyphOfWord&quot;:true,&quot;word&quot;:2}"></path><path d="M303.42679,108.78077l-7.35199,26.55738l5.52536,1.52961l3.21711,-11.62108l12.19144,3.37501l-3.21711,11.62108l5.52536,1.52961l7.35199,-26.55738l-5.52536,-1.52961l-2.7533,9.94565l-12.19144,-3.37501l2.7533,-9.94565z" data-paper-data="{&quot;glyphName&quot;:&quot;H&quot;,&quot;glyphIndex&quot;:7,&quot;firstGlyphOfWord&quot;:true,&quot;word&quot;:3}"></path><path d="M342.41459,121.8977l-5.18575,-2.44485l-11.75104,24.92507l5.18575,2.44485z" data-paper-data="{&quot;glyphName&quot;:&quot;I&quot;,&quot;glyphIndex&quot;:8,&quot;word&quot;:3}"></path><path d="M349.16561,143.66608c2.06766,1.70433 2.55774,3.65927 1.3439,5.51719c-0.97107,1.48634 -3.03914,1.94669 -4.61837,0.91493c-1.36247,-0.89015 -2.22372,-1.93884 -2.40663,-3.95819l-5.86524,0.32122c0.62055,3.85167 2.62546,6.5312 5.25751,8.2508c4.05646,2.65021 9.90725,1.87772 12.84069,-2.61226c2.91321,-4.45901 1.40168,-9.24624 -2.36907,-12.06325c-2.34511,-1.75304 -2.49209,-3.21873 -1.80425,-4.27156c0.82945,-1.26958 2.20225,-1.47726 3.47183,-0.6478c0.8051,0.526 1.50327,1.68905 1.69773,2.74394l5.57829,-0.28778c-0.38934,-3.25879 -1.99046,-5.54196 -4.28189,-7.03902c-3.18943,-2.08375 -8.58193,-1.67459 -11.13099,2.22704c-2.36698,3.62294 -1.40457,7.83051 2.2865,10.90474z" data-paper-data="{&quot;glyphName&quot;:&quot;S&quot;,&quot;glyphIndex&quot;:9,&quot;word&quot;:3}"></path><path d="M361.44235,168.80137l15.07796,-16.53556l5.35697,4.88476l3.48911,-3.82641l-14.62235,-13.3334l-3.48911,3.82641l5.029,4.58569l-15.07796,16.53556z" data-paper-data="{&quot;glyphName&quot;:&quot;T&quot;,&quot;glyphIndex&quot;:10,&quot;word&quot;:3}"></path><path d="M375.9666,186.68561c4.64021,6.36704 13.55858,7.73969 19.92561,3.09948c6.36704,-4.64021 7.76147,-13.52868 3.09948,-19.92561c-4.64021,-6.36704 -13.52868,-7.76147 -19.89572,-3.12126c-6.36704,4.64021 -7.79136,13.55047 -3.12937,19.9474zM394.56765,173.08365c2.74491,3.76642 1.77662,9.09474 -2.13925,11.94857c-3.97566,2.89741 -9.26295,2.17383 -12.00786,-1.59259c-2.78848,-3.8262 -1.83641,-9.05117 2.13925,-11.94857c3.91588,-2.85384 9.24116,-2.20372 12.00786,1.59259z" data-paper-data="{&quot;glyphName&quot;:&quot;O&quot;,&quot;glyphIndex&quot;:11,&quot;word&quot;:3}"></path><path d="M394.68522,208.12267l-2.64871,6.00954l2.95417,7.02359l3.55552,-7.9559c3.12799,2.85754 7.38711,3.63425 11.95585,1.7126c5.52341,-2.32318 8.06822,-8.77055 5.55861,-14.73719l-3.71422,-8.83063l-25.40085,10.68376l2.2228,5.28474l4.39827,-1.84994zM398.33996,203.45557l11.45595,-4.81845l1.34802,3.20494c1.54879,3.68227 -0.18552,6.61871 -3.28817,7.9237c-3.54589,1.49142 -6.71938,0.33835 -8.29685,-3.41211z" data-paper-data="{&quot;glyphName&quot;:&quot;R&quot;,&quot;glyphIndex&quot;:12,&quot;word&quot;:3}"></path><path d="M411.73264,232.53649l11.60564,-10.6582l-1.34459,-6.44515l-16.40529,15.36239l-8.18316,1.70717l1.17085,5.61235l8.69008,-1.81293l20.58931,7.22895l-1.23128,-5.90202z" data-paper-data="{&quot;glyphName&quot;:&quot;Y&quot;,&quot;glyphIndex&quot;:13,&quot;lastGlyphOfWord&quot;:true,&quot;word&quot;:3}"></path></g></g></g></svg>