<svg width="197" height="157" viewBox="0 0 197 157" fill="none" xmlns="http://www.w3.org/2000/svg">
<path fill-rule="evenodd" clip-rule="evenodd" d="M76.7497 156.372L118.188 156.492C118.466 156.493 118.744 156.414 118.988 156.276C119.065 156.241 119.143 156.205 119.221 156.168L152.646 132.89C152.99 132.728 153.163 132.402 153.336 132.075L166.128 95.2947C166.56 94.9022 166.657 94.2457 166.516 93.7016L153.728 56.234C153.557 55.9066 153.386 55.5792 153.043 55.4148L119.581 32.108C119.123 31.7798 118.665 31.6695 118.206 31.7771L77.1117 31.6587C76.7678 31.6577 76.4235 31.8201 76.0791 31.9826L42.4825 55.0961C42.0164 55.316 41.7859 55.7613 41.7383 56.229L28.7874 93.4681C28.6145 93.7945 28.6135 94.1214 28.7845 94.4488L41.3997 131.916C41.6554 132.405 42.1035 132.804 42.6008 132.975L75.7189 156.042C76.0624 156.207 76.4058 156.371 76.7497 156.372ZM71.5165 63.6793C70.8278 64.0042 70.6535 64.821 70.8235 65.4753L84.4614 106.051L62.0529 105.986L45.5312 56.9757L77.6181 34.9292L113.211 35.0318L71.5199 63.6769L71.5165 63.6793ZM161.284 89.8374L119.67 60.876C118.983 60.3836 118.295 60.3817 117.606 60.87L96.5867 75.3568C96.4471 75.4888 96.3073 75.6476 96.1904 75.8223L81.4292 85.9344L74.6058 65.6497L118.539 35.5375L150.629 57.6962L161.284 89.8374ZM98.6635 129.956L44.5009 129.8L32.2249 93.9683L43.3233 61.6366L59.0074 108.103C59.3494 108.757 60.0358 109.25 60.7235 109.252L87.0311 109.327L87.0366 109.327L105.773 109.381L98.6635 129.956ZM121.473 150.453L127.409 133.263L137.599 103.916C137.647 103.734 137.669 103.552 137.661 103.374C137.688 102.852 137.47 102.349 136.917 101.952L100.575 76.702L118.628 64.3055L162.729 94.9983L150.417 130.759L121.473 150.453ZM97.6417 78.7166L82.499 89.1149L88.2545 106.225L106.988 106.279L112.816 89.3513L97.6417 78.7166ZM48.4462 133.08L100.03 133.229C100.889 133.232 101.579 132.743 101.752 132.09L115.75 91.4075L133.816 104.068L116.869 153.219L77.275 153.105L48.4462 133.08Z" fill="black"/>
<path d="M19.7555 73.1447L20.5847 69.4445L1.19208 74.5311L16.7233 86.6756L17.5084 83.1725L15.4405 81.6545L17.2117 73.7506L19.7555 73.1447ZM7.75025 75.9981L13.6534 74.5856L12.5445 79.5338L7.75025 75.9981Z" fill="black"/>
<path d="M22.9882 64.0896L9.75123 59.0752L11.459 54.9991L8.3959 53.8387L3.7344 64.9648L6.7975 66.1251L8.4007 62.2986L21.6376 67.3131L22.9882 64.0896Z" fill="black"/>
<path d="M11.1857 48.6638L26.0533 57.5233L31.7428 48.8931L28.9489 47.2282L25.1975 52.9185L13.1239 45.7238L11.1857 48.6638Z" fill="black"/>
<path d="M42.212 38.0343L44.9284 35.2698L25.5486 30.1295L32.2785 48.1435L34.8503 45.5262L33.9006 43.2126L39.7031 37.3074L42.212 38.0343ZM30.3748 34.5989L36.2004 36.28L32.5678 39.9768L30.3748 34.5989Z" fill="black"/>
<path d="M45.41 25.8016C46.8978 25.0083 48.1711 25.16 48.9945 26.2518C49.6532 27.1253 49.4503 28.393 48.4742 29.058C47.6321 29.6318 46.8112 29.888 45.5704 29.5489L44.4106 32.9286C46.8399 33.4221 48.8921 32.8778 50.5189 31.7694C53.0261 30.0611 53.9147 26.5908 51.9249 23.9522C49.9488 21.3318 46.759 21.1361 44.2186 22.6466C42.638 23.5858 41.7341 23.3477 41.2675 22.729C40.7049 21.9829 40.8977 21.1629 41.6824 20.6282C42.18 20.2892 43.0311 20.15 43.7021 20.2713L44.8157 17.0609C42.7916 16.5667 41.0676 16.97 39.6513 17.935C37.68 19.2782 36.6813 22.4104 38.4104 24.7032C40.016 26.8323 42.7352 27.2109 45.41 25.8016Z" fill="black"/>
<path d="M75.9531 20.4253C80.7836 19.1411 83.586 14.3742 82.2337 9.78189C80.8814 5.18962 75.8887 2.51835 71.0355 3.80862C66.205 5.09286 63.3963 9.83821 64.7486 14.4305C66.1009 19.0227 71.0999 21.7156 75.9531 20.4253ZM71.9752 6.9995C74.8326 6.2398 77.7961 7.9162 78.6278 10.7406C79.4722 13.608 77.8646 16.4532 75.0072 17.2129C72.1043 17.9846 69.1989 16.3393 68.3545 13.4718C67.5228 10.6475 69.095 7.76522 71.9752 6.9995Z" fill="black"/>
<path d="M91.3509 17.2392L90.8979 9.95356L97.4805 9.58533L97.2859 6.45655L90.7033 6.82478L90.5101 3.71833L96.1759 3.4014L95.9813 0.27262L86.6716 0.793394L87.707 17.443L91.3509 17.2392Z" fill="black"/>
<path d="M116.825 2.01575L112.098 18.076L115.613 19.012L117.682 11.9843L125.438 14.0493L123.369 21.0771L126.885 22.013L131.612 5.95271L128.097 5.01677L126.326 11.0313L118.57 8.96621L120.341 2.95168L116.825 2.01575Z" fill="black"/>
<path d="M141.626 10.0263L138.328 8.53707L130.803 23.6013L134.1 25.0906L141.626 10.0263Z" fill="black"/>
<path d="M145.886 23.2139C147.199 24.2493 147.508 25.4334 146.732 26.5557C146.111 27.4535 144.793 27.7283 143.79 27.101C142.924 26.5597 142.377 25.9234 142.264 24.7009L138.529 24.8845C138.918 27.2169 140.189 28.8423 141.862 29.8879C144.44 31.4994 148.167 31.0426 150.042 28.3304C151.905 25.637 150.951 22.7367 148.555 21.0248C147.065 19.9595 146.974 19.0721 147.414 18.4362C147.944 17.6693 148.819 17.5461 149.626 18.0505C150.137 18.3703 150.58 19.0755 150.702 19.7143L154.254 19.5504C154.012 17.5773 152.996 16.1925 151.54 15.2822C149.513 14.0152 146.079 14.2529 144.449 16.6097C142.936 18.7981 143.541 21.3465 145.886 23.2139Z" fill="black"/>
<path d="M153.658 38.4495L163.287 28.4691L166.689 31.4354L168.918 29.1259L159.631 21.0291L157.403 23.3386L160.597 26.1233L150.968 36.1037L153.658 38.4495Z" fill="black"/>
<path d="M162.874 49.3006C165.817 53.1627 171.493 54.0099 175.555 51.2131C179.617 48.4163 180.521 43.0391 177.564 39.1589C174.621 35.2967 168.964 34.4364 164.902 37.2332C160.84 40.03 159.917 45.4203 162.874 49.3006ZM174.741 41.1022C176.482 43.3868 175.857 46.61 173.358 48.3301C170.822 50.0764 167.457 49.6288 165.716 47.3441C163.947 45.0232 164.562 41.8626 167.099 40.1162C169.597 38.3961 172.986 38.7994 174.741 41.1022Z" fill="black"/>
<path d="M174.755 62.3097L173.058 65.9421L174.926 70.1985L177.204 65.3897C179.191 67.125 181.901 67.6029 184.813 66.4482C188.334 65.0523 189.966 61.1547 188.378 57.5388L186.029 52.1872L169.838 58.6069L171.244 61.8096L174.047 60.698L174.755 62.3097ZM177.09 59.4916L184.392 56.5963L185.245 58.5385C186.225 60.7701 185.115 62.5442 183.137 63.3283C180.877 64.2245 178.859 63.5208 177.861 61.2479L177.09 59.4916Z" fill="black"/>
<path d="M185.566 77.1174L192.974 70.6878L192.129 66.7844L181.657 76.0524L176.444 77.0706L177.179 80.4696L182.715 79.3883L195.812 83.8014L195.038 80.227L185.566 77.1174Z" fill="black"/>
</svg>
