<svg width="20" height="20" viewBox="0 0 20 20" fill="none" xmlns="http://www.w3.org/2000/svg">
<path d="M2.84796 13.5513V12.8381H1.47653V13.5513C1.47653 14.8754 1.98224 16.1453 2.88242 17.0816C3.78259 18.0179 5.00349 18.5439 6.27653 18.5439H8.33367V17.1174H6.27653C5.36721 17.1174 4.49514 16.7417 3.85216 16.0729C3.20918 15.4042 2.84796 14.4971 2.84796 13.5513ZM15.1908 6.41904V7.13226H16.5622V6.41904C16.5622 5.09492 16.0565 3.82504 15.1563 2.88875C14.2562 1.95246 13.0353 1.42645 11.7622 1.42645H9.7051V2.85291H11.7622C12.2125 2.85291 12.6583 2.94515 13.0743 3.12436C13.4903 3.30358 13.8682 3.56626 14.1866 3.8974C14.505 4.22855 14.7575 4.62167 14.9298 5.05434C15.1021 5.487 15.1908 5.95073 15.1908 6.41904ZM6.27653 6.41904H2.16224C1.61666 6.41904 1.09341 6.64447 0.707625 7.04573C0.321837 7.447 0.105103 7.99124 0.105103 8.55871V9.98517H1.47653V8.55871C1.47653 8.36955 1.54877 8.18814 1.67737 8.05439C1.80597 7.92063 1.98038 7.84549 2.16224 7.84549H6.27653C6.45839 7.84549 6.6328 7.92063 6.7614 8.05439C6.89 8.18814 6.96224 8.36955 6.96224 8.55871V9.98517H8.33367V8.55871C8.33367 7.99124 8.11693 7.447 7.73115 7.04573C7.34536 6.64447 6.82211 6.41904 6.27653 6.41904ZM4.21939 5.70581C4.76187 5.70581 5.29217 5.53849 5.74323 5.22501C6.19429 4.91153 6.54585 4.46596 6.75345 3.94466C6.96105 3.42336 7.01537 2.84974 6.90954 2.29633C6.8037 1.74292 6.54247 1.23458 6.15888 0.835598C5.77528 0.436612 5.28655 0.164899 4.75449 0.054819C4.22243 -0.0552609 3.67093 0.00123611 3.16974 0.217166C2.66855 0.433095 2.24017 0.798759 1.93878 1.26792C1.6374 1.73707 1.47653 2.28865 1.47653 2.85291C1.47653 3.60954 1.76551 4.33519 2.27989 4.87021C2.79428 5.40524 3.49194 5.70581 4.21939 5.70581ZM4.21939 1.42645C4.49063 1.42645 4.75578 1.51011 4.98131 1.66685C5.20684 1.82359 5.38262 2.04638 5.48642 2.30703C5.59022 2.56768 5.61738 2.85449 5.56446 3.13119C5.51154 3.4079 5.38093 3.66207 5.18913 3.86156C4.99733 4.06105 4.75297 4.19691 4.48694 4.25195C4.22091 4.30699 3.94516 4.27874 3.69456 4.17078C3.44397 4.06281 3.22978 3.87998 3.07909 3.6454C2.92839 3.41082 2.84796 3.13503 2.84796 2.85291C2.84796 2.47459 2.99245 2.11176 3.24964 1.84425C3.50683 1.57674 3.85566 1.42645 4.21939 1.42645ZM17.2479 16.4042H13.1337C12.5881 16.4042 12.0648 16.6296 11.679 17.0309C11.2933 17.4322 11.0765 17.9764 11.0765 18.5439V19.9703H12.448V18.5439C12.448 18.3547 12.5202 18.1733 12.6488 18.0396C12.7774 17.9058 12.9518 17.8307 13.1337 17.8307H17.2479C17.4298 17.8307 17.6042 17.9058 17.7328 18.0396C17.8614 18.1733 17.9337 18.3547 17.9337 18.5439V19.9703H19.3051V18.5439C19.3051 17.9764 19.0884 17.4322 18.7026 17.0309C18.3168 16.6296 17.7935 16.4042 17.2479 16.4042ZM12.448 12.8381C12.448 13.4023 12.6088 13.9539 12.9102 14.4231C13.2116 14.8922 13.64 15.2579 14.1412 15.4738C14.6424 15.6897 15.1938 15.7462 15.7259 15.6362C16.258 15.5261 16.7467 15.2544 17.1303 14.8554C17.5139 14.4564 17.7751 13.9481 17.881 13.3946C17.9868 12.8412 17.9325 12.2676 17.7249 11.7463C17.5173 11.225 17.1657 10.7794 16.7147 10.466C16.2636 10.1525 15.7333 9.98517 15.1908 9.98517C14.4634 9.98517 13.7657 10.2857 13.2513 10.8208C12.7369 11.3558 12.448 12.0814 12.448 12.8381ZM16.5622 12.8381C16.5622 13.1202 16.4818 13.396 16.3311 13.6306C16.1804 13.8651 15.9662 14.048 15.7156 14.1559C15.465 14.2639 15.1893 14.2922 14.9233 14.2371C14.6572 14.1821 14.4129 14.0462 14.2211 13.8467C14.0293 13.6472 13.8986 13.3931 13.8457 13.1164C13.7928 12.8397 13.82 12.5528 13.9238 12.2922C14.0276 12.0315 14.2034 11.8088 14.4289 11.652C14.6544 11.4953 14.9196 11.4116 15.1908 11.4116C15.5545 11.4116 15.9034 11.5619 16.1606 11.8294C16.4177 12.0969 16.5622 12.4598 16.5622 12.8381Z" fill="black"/>
</svg>
