<svg width="20" height="20" viewBox="0 0 20 20" fill="none" xmlns="http://www.w3.org/2000/svg">
<path d="M9.59697 14.9777H10.6636V8.8757H9.59697V14.9777ZM10.1303 7.29694C10.3166 7.29694 10.4723 7.23148 10.5975 7.10056C10.7234 6.96965 10.7863 6.80766 10.7863 6.61462C10.7863 6.42083 10.7234 6.25848 10.5975 6.12756C10.4723 5.99665 10.3166 5.93119 10.1303 5.93119C9.94399 5.93119 9.78826 5.99665 9.66311 6.12756C9.53724 6.25848 9.4743 6.42083 9.4743 6.61462C9.4743 6.80766 9.53724 6.96965 9.66311 7.10056C9.78826 7.23148 9.94399 7.29694 10.1303 7.29694ZM10.1335 19.9703C8.80657 19.9703 7.55857 19.7085 6.3895 19.1848C5.22115 18.6604 4.20462 17.9489 3.3399 17.0502C2.47519 16.1523 1.79075 15.0961 1.28657 13.8816C0.782393 12.6671 0.530304 11.3694 0.530304 9.98849C0.530304 8.60832 0.782037 7.31025 1.2855 6.09428C1.78968 4.87905 2.47377 3.82173 3.33777 2.92232C4.20106 2.02292 5.21653 1.31102 6.38417 0.786609C7.55182 0.262203 8.79946 0 10.1271 0C11.454 0 12.702 0.261833 13.8711 0.7855C15.0395 1.30991 16.056 2.02144 16.9207 2.92011C17.7854 3.81803 18.4699 4.87424 18.974 6.08873C19.4782 7.30322 19.7303 8.60093 19.7303 9.98184C19.7303 11.362 19.4786 12.6601 18.9751 13.8761C18.4709 15.0913 17.7868 16.1486 16.9228 17.048C16.0595 17.9474 15.0441 18.6593 13.8764 19.1837C12.7088 19.7081 11.4611 19.9703 10.1335 19.9703ZM10.1303 18.8609C12.5125 18.8609 14.5303 18.001 16.1836 16.2814C17.837 14.5617 18.6636 12.463 18.6636 9.98517C18.6636 7.50737 17.837 5.40863 16.1836 3.68896C14.5303 1.9693 12.5125 1.10946 10.1303 1.10946C7.74808 1.10946 5.7303 1.9693 4.07697 3.68896C2.42364 5.40863 1.59697 7.50737 1.59697 9.98517C1.59697 12.463 2.42364 14.5617 4.07697 16.2814C5.7303 18.001 7.74808 18.8609 10.1303 18.8609Z" fill="black"/>
</svg>
