<svg width="20" height="20" viewBox="0 0 20 20" fill="none" xmlns="http://www.w3.org/2000/svg">
<path d="M17.7162 7.93652C17.7162 7.7328 17.6385 7.53743 17.5003 7.39338C17.3621 7.24933 17.1746 7.1684 16.9791 7.1684C16.7836 7.1684 16.5962 7.24933 16.4579 7.39338C16.3197 7.53743 16.2421 7.7328 16.2421 7.93652H17.7162ZM3.95794 7.93652C3.95794 7.7328 3.88029 7.53743 3.74206 7.39338C3.60384 7.24933 3.41637 7.1684 3.22089 7.1684C3.02542 7.1684 2.83794 7.24933 2.69972 7.39338C2.5615 7.53743 2.48384 7.7328 2.48384 7.93652H3.95794ZM18.4237 10.5276C18.4912 10.6031 18.5726 10.6636 18.663 10.7056C18.7534 10.7476 18.851 10.7702 18.95 10.772C19.0489 10.7738 19.1472 10.7548 19.239 10.7162C19.3308 10.6776 19.4141 10.6201 19.4841 10.5471C19.5541 10.4742 19.6093 10.3873 19.6464 10.2917C19.6834 10.196 19.7016 10.0936 19.6999 9.99044C19.6981 9.8873 19.6765 9.78559 19.6362 9.69137C19.5959 9.59715 19.5378 9.51235 19.4654 9.44203L18.4237 10.5276ZM10.1 0.76744L10.6208 0.224638C10.4827 0.0807952 10.2953 0 10.1 0C9.90468 0 9.71735 0.0807952 9.57915 0.224638L10.1 0.76744ZM0.734586 9.44203C0.662172 9.51235 0.60409 9.59715 0.563806 9.69137C0.523522 9.78559 0.501861 9.8873 0.500115 9.99044C0.498369 10.0936 0.516573 10.196 0.553643 10.2917C0.590712 10.3873 0.645887 10.4742 0.715876 10.5471C0.785865 10.6201 0.869234 10.6776 0.961009 10.7162C1.05278 10.7548 1.15109 10.7738 1.25005 10.772C1.34901 10.7702 1.44661 10.7476 1.53702 10.7056C1.62743 10.6636 1.7088 10.6031 1.77628 10.5276L0.734586 9.44203ZM5.18635 19.9703H15.0136V18.4341H5.18635V19.9703ZM17.7162 17.1539V7.93652H16.2421V17.1539H17.7162ZM3.95794 17.1539V7.93652H2.48384V17.1539H3.95794ZM19.4654 9.44203L10.6208 0.224638L9.57915 1.31024L18.4237 10.5276L19.4654 9.44203ZM9.57915 0.224638L0.734586 9.44203L1.77628 10.5276L10.6208 1.31024L9.57915 0.224638ZM15.0136 19.9703C15.7304 19.9703 16.4178 19.6736 16.9246 19.1454C17.4314 18.6172 17.7162 17.9009 17.7162 17.1539H16.2421C16.2421 17.8606 15.6917 18.4341 15.0136 18.4341V19.9703ZM5.18635 18.4341C4.50827 18.4341 3.95794 17.8606 3.95794 17.1539H2.48384C2.48384 17.9009 2.76857 18.6172 3.27539 19.1454C3.78221 19.6736 4.4696 19.9703 5.18635 19.9703V18.4341Z" fill="black"/>
</svg>
