<svg width="21" height="20" viewBox="0 0 21 20" fill="none" xmlns="http://www.w3.org/2000/svg">
<path d="M4.72883 8.64271C6.26483 11.7825 8.73949 14.3454 11.7582 15.9541L14.1048 13.5133C14.3928 13.2137 14.8195 13.1138 15.1928 13.247C16.3875 13.6575 17.6782 13.8794 19.0008 13.8794C19.5875 13.8794 20.0675 14.3786 20.0675 14.9888V18.8609C20.0675 19.4711 19.5875 19.9703 19.0008 19.9703C8.98483 19.9703 0.867493 11.5273 0.867493 1.10946C0.867493 0.499258 1.34749 0 1.93416 0H5.66749C6.25416 0 6.73416 0.499258 6.73416 1.10946C6.73416 2.49629 6.94749 3.82765 7.34216 5.07025C7.45949 5.45856 7.37416 5.89125 7.07549 6.2019L4.72883 8.64271Z" fill="black"/>
</svg>
